<svg width="26" height="32" viewBox="0 0 26 32" fill="none" xmlns="http://www.w3.org/2000/svg">
<path d="M18 25.1667V26C18 29.3137 15.7614 31 13 31C10.2386 31 8 29.3137 8 26V25.1667M18 25.1667H21.3949C24.1303 25.1667 25.7222 22.0375 24.2018 19.7635C23.0641 18.0618 21.9747 16.3259 21.4303 15.1667M18 25.1667H8M8 25.1667H4.60458C1.86923 25.1667 0.27734 22.0375 1.79766 19.7635C3.1989 17.6677 4.52687 15.5199 4.85356 14.4615C5.7409 11.5869 5.44051 10.2931 5.44051 8.6923C5.44051 5.33543 7.55357 2.48077 10.5 1.43055M23.8333 5.16667C23.8333 7.46785 21.9678 9.33333 19.6667 9.33333C17.3655 9.33333 15.5 7.46785 15.5 5.16667C15.5 2.86548 17.3655 1 19.6667 1C21.9678 1 23.8333 2.86548 23.8333 5.16667Z" stroke="black" stroke-width="2" stroke-linecap="round" stroke-linejoin="round"/>
</svg>
