<svg width="163" height="35" viewBox="0 0 163 35" fill="none" xmlns="http://www.w3.org/2000/svg">
<path d="M13.652 27.36C11.732 27.36 9.98 27.036 8.396 26.388C6.812 25.74 5.432 24.828 4.256 23.652C3.08 22.476 2.168 21.096 1.52 19.512C0.872 17.928 0.548 16.188 0.548 14.292C0.548 12.396 0.872 10.656 1.52 9.072C2.168 7.488 3.08 6.108 4.256 4.932C5.432 3.756 6.812 2.844 8.396 2.196C9.98 1.548 11.72 1.224 13.616 1.224C15.512 1.224 17.252 1.548 18.836 2.196C20.42 2.844 21.8 3.756 22.976 4.932C24.152 6.108 25.052 7.488 25.676 9.072C26.324 10.656 26.648 12.396 26.648 14.292C26.648 16.164 26.324 17.904 25.676 19.512C25.052 21.096 24.152 22.476 22.976 23.652C21.8 24.828 20.42 25.74 18.836 26.388C17.252 27.036 15.524 27.36 13.652 27.36ZM13.616 21.6C14.6 21.6 15.5 21.42 16.316 21.06C17.156 20.7 17.876 20.196 18.476 19.548C19.1 18.876 19.58 18.096 19.916 17.208C20.252 16.32 20.42 15.348 20.42 14.292C20.42 13.236 20.252 12.264 19.916 11.376C19.58 10.488 19.1 9.72 18.476 9.072C17.876 8.4 17.156 7.884 16.316 7.524C15.5 7.164 14.6 6.984 13.616 6.984C12.632 6.984 11.72 7.164 10.88 7.524C10.064 7.884 9.344 8.4 8.72 9.072C8.096 9.72 7.616 10.488 7.28 11.376C6.968 12.264 6.812 13.236 6.812 14.292C6.812 15.348 6.968 16.332 7.28 17.244C7.616 18.132 8.096 18.9 8.72 19.548C9.344 20.196 10.064 20.7 10.88 21.06C11.72 21.42 12.632 21.6 13.616 21.6ZM39.7348 27.36C38.0788 27.36 36.5788 27.168 35.2348 26.784C33.9148 26.376 32.7388 25.8 31.7068 25.056C30.6748 24.288 29.7508 23.388 28.9348 22.356L32.6428 18.144C33.8428 19.752 35.0428 20.832 36.2428 21.384C37.4668 21.936 38.7268 22.212 40.0228 22.212C40.6708 22.212 41.2588 22.128 41.7868 21.96C42.3148 21.792 42.7228 21.552 43.0108 21.24C43.2988 20.904 43.4428 20.496 43.4428 20.016C43.4428 19.656 43.3468 19.332 43.1548 19.044C42.9868 18.756 42.7468 18.504 42.4348 18.288C42.1228 18.072 41.7508 17.88 41.3188 17.712C40.8868 17.52 40.4308 17.364 39.9508 17.244C39.4708 17.1 38.9788 16.98 38.4748 16.884C37.0828 16.572 35.8708 16.188 34.8388 15.732C33.8068 15.276 32.9428 14.724 32.2468 14.076C31.5748 13.404 31.0708 12.648 30.7348 11.808C30.3988 10.944 30.2308 9.984 30.2308 8.928C30.2308 7.8 30.4828 6.768 30.9868 5.832C31.5148 4.872 32.2108 4.056 33.0748 3.384C33.9628 2.688 34.9828 2.16 36.1348 1.8C37.2868 1.416 38.4868 1.224 39.7348 1.224C41.3908 1.224 42.8068 1.404 43.9828 1.764C45.1828 2.1 46.2028 2.592 47.0428 3.24C47.9068 3.888 48.6388 4.668 49.2388 5.58L45.4588 9.216C44.9548 8.592 44.4028 8.076 43.8028 7.668C43.2268 7.26 42.6028 6.948 41.9308 6.732C41.2828 6.516 40.6108 6.408 39.9148 6.408C39.1948 6.408 38.5708 6.504 38.0428 6.696C37.5388 6.864 37.1428 7.116 36.8548 7.452C36.5668 7.764 36.4228 8.148 36.4228 8.604C36.4228 9.012 36.5428 9.36 36.7828 9.648C37.0228 9.936 37.3468 10.2 37.7548 10.44C38.1628 10.656 38.6308 10.848 39.1588 11.016C39.6868 11.16 40.2388 11.28 40.8148 11.376C42.1348 11.64 43.3228 11.988 44.3788 12.42C45.4588 12.852 46.3828 13.38 47.1508 14.004C47.9428 14.628 48.5428 15.372 48.9508 16.236C49.3828 17.076 49.5988 18.06 49.5988 19.188C49.5988 20.94 49.1668 22.428 48.3028 23.652C47.4628 24.852 46.2988 25.776 44.8108 26.424C43.3468 27.048 41.6548 27.36 39.7348 27.36ZM53.6953 27V21.852H57.9433V6.948H53.6953V1.8H68.3473V6.948H64.0633V21.852H68.3473V27H53.6953ZM75.608 27.396C74.624 27.396 73.856 27.12 73.304 26.568C72.776 26.016 72.512 25.224 72.512 24.192C72.512 23.232 72.8 22.452 73.376 21.852C73.952 21.252 74.696 20.952 75.608 20.952C76.592 20.952 77.36 21.24 77.912 21.816C78.464 22.368 78.74 23.16 78.74 24.192C78.74 25.128 78.452 25.896 77.876 26.496C77.3 27.096 76.544 27.396 75.608 27.396ZM99.0381 27V1.8H105.158V27H99.0381ZM83.4141 27V1.8H89.5341V27H83.4141ZM85.7901 17.172L85.8261 11.7H102.278V17.172H85.7901ZM119.965 27.36C117.853 27.36 116.017 26.94 114.457 26.1C112.897 25.236 111.685 24.072 110.821 22.608C109.957 21.12 109.525 19.428 109.525 17.532C109.525 16.068 109.765 14.724 110.245 13.5C110.725 12.276 111.397 11.22 112.261 10.332C113.125 9.42 114.145 8.724 115.321 8.244C116.521 7.74 117.829 7.488 119.245 7.488C120.589 7.488 121.813 7.728 122.917 8.208C124.045 8.688 125.017 9.36 125.833 10.224C126.649 11.088 127.273 12.108 127.705 13.284C128.137 14.46 128.329 15.744 128.281 17.136L128.245 18.684H113.017L112.189 15.444H123.565L122.953 16.128V15.408C122.905 14.808 122.713 14.28 122.377 13.824C122.065 13.344 121.645 12.972 121.117 12.708C120.589 12.444 119.989 12.312 119.317 12.312C118.381 12.312 117.577 12.504 116.905 12.888C116.257 13.248 115.765 13.788 115.429 14.508C115.093 15.204 114.925 16.068 114.925 17.1C114.925 18.156 115.141 19.08 115.573 19.872C116.029 20.64 116.677 21.24 117.517 21.672C118.381 22.104 119.401 22.32 120.577 22.32C121.393 22.32 122.113 22.2 122.737 21.96C123.385 21.72 124.081 21.312 124.825 20.736L127.525 24.552C126.781 25.2 125.989 25.728 125.149 26.136C124.309 26.544 123.445 26.844 122.557 27.036C121.693 27.252 120.829 27.36 119.965 27.36ZM131.987 27V0.36H137.747V27H131.987ZM142.884 34.92V7.884H148.356L148.572 12.168L147.492 11.844C147.66 11.052 148.068 10.332 148.716 9.684C149.364 9.036 150.18 8.52 151.164 8.136C152.172 7.728 153.228 7.524 154.332 7.524C155.964 7.524 157.416 7.956 158.688 8.82C159.96 9.66 160.956 10.824 161.676 12.312C162.42 13.776 162.792 15.48 162.792 17.424C162.792 19.344 162.42 21.048 161.676 22.536C160.956 24.024 159.948 25.2 158.652 26.064C157.38 26.904 155.916 27.324 154.26 27.324C153.18 27.324 152.148 27.12 151.164 26.712C150.18 26.304 149.352 25.752 148.68 25.056C148.008 24.36 147.564 23.604 147.348 22.788L148.68 22.284V34.92H142.884ZM152.856 22.464C153.72 22.464 154.476 22.26 155.124 21.852C155.772 21.42 156.276 20.832 156.636 20.088C156.996 19.344 157.176 18.456 157.176 17.424C157.176 16.416 156.996 15.54 156.636 14.796C156.276 14.028 155.772 13.44 155.124 13.032C154.5 12.6 153.744 12.384 152.856 12.384C151.968 12.384 151.2 12.588 150.552 12.996C149.904 13.404 149.4 13.992 149.04 14.76C148.68 15.528 148.5 16.416 148.5 17.424C148.5 18.456 148.68 19.344 149.04 20.088C149.4 20.832 149.904 21.42 150.552 21.852C151.2 22.26 151.968 22.464 152.856 22.464Z" fill="#1E90FF"/>
</svg>
