<svg width="40" height="40" viewBox="0 0 40 40" fill="none" xmlns="http://www.w3.org/2000/svg">
<rect width="40" height="40" rx="5" fill="#1E90FF"/>
<path d="M27.8336 26.5714V23.7143M27.8336 26.5714V29.4286M27.8336 26.5714H24.6672M27.8336 26.5714H31M24.0339 22.1418C22.8703 21.6831 21.5852 21.4286 20.2342 21.4286C15.8546 21.4286 12.1673 24.1029 11.0685 27.7405C10.7006 28.9584 11.8691 30 13.2681 30H21.5008M24.6672 14C24.6672 16.2091 22.6825 18 20.2342 18C17.7859 18 15.8012 16.2091 15.8012 14C15.8012 11.7909 17.7859 10 20.2342 10C22.6825 10 24.6672 11.7909 24.6672 14Z" stroke="white" stroke-width="2" stroke-linecap="round" stroke-linejoin="round"/>
</svg>
