<svg width="11" height="8" viewBox="0 0 11 8" fill="none" xmlns="http://www.w3.org/2000/svg">
<path d="M3.25 2.5V3.5M3.25 4.5V5.5M3.25 6.5V7M3.25 1.5V1M4.75 5.5H8M4.75 4H6.5M2 1H9C9.55228 1 10 1.44772 10 2V2.5C10 2.77614 9.76274 2.98964 9.52051 3.12224C9.21034 3.29203 9 3.62145 9 4C9 4.37855 9.21034 4.70797 9.52051 4.87776C9.76274 5.01036 10 5.22386 10 5.5V6C10 6.55228 9.55228 7 9 7L2 7C1.44772 7 1 6.55228 1 6V5.5C1 5.22386 1.23726 5.01036 1.47949 4.87776C1.78966 4.70797 2 4.37855 2 4C2 3.62145 1.78966 3.29203 1.47949 3.12224C1.23726 2.98964 1 2.77614 1 2.5V2C1 1.44772 1.44772 1 2 1Z" stroke="#8A8A8A" stroke-width="0.5" stroke-linecap="round" stroke-linejoin="round"/>
</svg>
