<svg width="28" height="27" viewBox="0 0 28 27" fill="none" xmlns="http://www.w3.org/2000/svg">
<path d="M25.4437 11.5982C26.4968 10.8337 25.9551 9.17054 24.6531 9.17054H19.5382C18.3648 9.17054 17.3269 8.41089 16.974 7.2937L15.2821 1.93842C14.8868 0.687193 13.1132 0.687194 12.7179 1.93842L11.026 7.2937C10.6731 8.41089 9.6352 9.17054 8.46182 9.17054H3.34694C2.04488 9.17054 1.50324 10.8337 2.55633 11.5982L7.11177 14.905C8.09626 15.6196 8.47703 16.9054 8.04006 18.0396L6.06385 23.1691C5.58305 24.417 7.02618 25.5228 8.10932 24.7363L12.4186 21.6075C13.3614 20.9229 14.6386 20.9229 15.5815 21.6075L19.8907 24.7363C20.9738 25.5228 22.4169 24.417 21.9362 23.1691L19.9599 18.0396C19.523 16.9054 19.9037 15.6196 20.8882 14.905L25.4437 11.5982Z" fill="#FFE600" fill-opacity="0.63" stroke="black" stroke-width="2" stroke-linecap="round" stroke-linejoin="round"/>
</svg>
