<svg width="22" height="22" viewBox="0 0 22 22" fill="none" xmlns="http://www.w3.org/2000/svg">
<path d="M4.7037 14.8889H10.6296M4.7037 17.1111H15.0741M3.22222 21H18.7778C20.0051 21 21 20.2538 21 19.3333V2.66667C21 1.74619 20.0051 1 18.7778 1H3.22222C1.99492 1 1 1.74619 1 2.66667V19.3333C1 20.2538 1.99492 21 3.22222 21ZM4.7037 1H11.3704V8.5C11.3704 8.76695 10.9173 8.88023 10.7037 8.66667L9.81481 7.77778C8.92593 6.88889 7.14815 6.88889 6.25926 7.77778L5.37037 8.66667C5.15681 8.88023 4.7037 8.76695 4.7037 8.5V1Z" stroke="white" stroke-linecap="round" stroke-linejoin="round"/>
</svg>
