<svg width="22" height="22" viewBox="0 0 22 22" fill="none" xmlns="http://www.w3.org/2000/svg">
<path d="M19 13V21M11 9.66667V21M3 17V21M4.33333 9.50926C3.9795 9.19257 3.51224 9 3 9C1.89543 9 1 9.89543 1 11C1 12.1046 1.89543 13 3 13C4.10457 13 5 12.1046 5 11C5 10.4077 4.7425 9.87548 4.33333 9.50926ZM4.33333 9.50926L9.50926 4.33333M9.50926 4.33333C9.87548 4.7425 10.4077 5 11 5C11.8708 5 12.6116 4.44346 12.8862 3.66667M9.50926 4.33333C9.19257 3.9795 9 3.51224 9 3C9 1.89543 9.89543 1 11 1C12.1046 1 13 1.89543 13 3C13 3.23376 12.9599 3.45815 12.8862 3.66667M12.8862 3.66667L17.0653 5.15785M17.0653 5.15785C17.0227 5.32031 17 5.49084 17 5.66667C17 6.77124 17.8954 7.66667 19 7.66667C20.1046 7.66667 21 6.77124 21 5.66667C21 4.5621 20.1046 3.66667 19 3.66667C18.0713 3.66667 17.2904 4.29971 17.0653 5.15785Z" stroke="white" stroke-linecap="round" stroke-linejoin="round"/>
</svg>
