<svg width="22" height="21" viewBox="0 0 22 21" fill="none" xmlns="http://www.w3.org/2000/svg">
<path d="M15.3595 16.8333H19.1741C20.378 16.8333 21.407 15.6315 20.8396 14.3975C19.9067 12.3687 17.804 11.1333 15.3595 11.1333C14.1633 11.1333 13.0523 11.4152 12.1206 11.9395M1.16036 17.5642C2.09327 15.5353 4.196 14.3 6.64047 14.3C9.08494 14.3 11.1877 15.5353 12.1206 17.5642C12.688 18.7982 11.6589 20 10.4551 20H2.82588C1.62203 20 0.59295 18.7982 1.16036 17.5642ZM9.36518 7.33333C9.36518 9.08223 8.14528 10.5 6.64047 10.5C5.13566 10.5 3.91576 9.08223 3.91576 7.33333C3.91576 5.58443 5.13566 4.16667 6.64047 4.16667C8.14528 4.16667 9.36518 5.58443 9.36518 7.33333ZM18.0842 4.16667C18.0842 5.91557 16.8643 7.33333 15.3595 7.33333C13.8547 7.33333 12.6348 5.91557 12.6348 4.16667C12.6348 2.41776 13.8547 1 15.3595 1C16.8643 1 18.0842 2.41776 18.0842 4.16667Z" stroke="white" stroke-linecap="round" stroke-linejoin="round"/>
</svg>
