<svg width="23" height="23" viewBox="0 0 23 23" fill="none" xmlns="http://www.w3.org/2000/svg">
<path d="M2.35602 16.9391C5.14752 21.7787 11.33 23.4368 16.165 20.6427C18.3933 19.355 19.9465 17.3464 20.7004 15.0811C20.8073 14.7597 20.5985 14.4261 20.2664 14.3602L17.2278 13.7572C16.6382 13.6402 16.0661 13.991 15.771 14.5152C15.3163 15.3225 14.6464 16.0222 13.7865 16.5191C11.2268 17.9983 7.95367 17.1205 6.47582 14.5584C4.99797 11.9963 5.87499 8.72012 8.4347 7.24089C8.48827 7.20994 8.54215 7.18001 8.59632 7.15111C9.11201 6.87601 9.47012 6.33465 9.38743 5.75562L8.94042 2.62542C8.89345 2.29655 8.57508 2.07678 8.25674 2.17081C7.50417 2.39309 6.76564 2.70724 6.05613 3.11726C1.22112 5.91135 -0.435471 12.0996 2.35602 16.9391Z" stroke="white" stroke-width="2" stroke-linecap="round" stroke-linejoin="round"/>
<path d="M16.1077 9.96017C16.0084 9.70218 15.8878 9.44857 15.7453 9.2016C15.0965 8.07674 14.1016 7.27654 12.973 6.85791C12.4039 6.64681 11.9648 6.12855 11.9941 5.52175L12.1118 3.07684C12.1447 2.39312 12.7482 1.87171 13.4141 2.02782C16.0379 2.64299 18.4114 4.30049 19.8651 6.82082C20.3881 7.7274 20.7549 8.68131 20.974 9.65138C21.1294 10.3394 20.5669 10.9461 19.8622 10.9384L17.3511 10.911C16.7831 10.9048 16.3119 10.4908 16.1077 9.96017Z" stroke="white" stroke-width="2" stroke-linecap="round" stroke-linejoin="round"/>
</svg>
