<svg width="20" height="22" viewBox="0 0 20 22" fill="none" xmlns="http://www.w3.org/2000/svg">
<path d="M19 18.5432V8.50535C19 7.85377 18.7163 7.24385 18.1888 6.83092C16.8025 5.74581 13.9815 3.58909 11.7369 1.6721C10.7351 0.816557 9.21223 0.762513 8.19204 1.59797L1.89796 6.75235C1.32802 7.2191 1 7.90048 1 8.61768V18.5432C1 19.9001 2.15127 21 3.57143 21H4.21429C5.63445 21 6.78571 19.9001 6.78571 18.5432V16.0864C6.78571 14.7296 7.93698 13.6297 9.35714 13.6297H10.6429C12.063 13.6297 13.2143 14.7296 13.2143 16.0864V18.5432C13.2143 19.9001 14.3656 21 15.7857 21H16.4286C17.8487 21 19 19.9001 19 18.5432Z" stroke="white" stroke-linecap="round" stroke-linejoin="round"/>
</svg>
