<svg width="17" height="22" viewBox="0 0 17 22" fill="none" xmlns="http://www.w3.org/2000/svg">
<path d="M11.289 15.8148V18.7778C11.289 20.0051 10.1697 21 8.78902 21H8.29007C6.92167 21 5.80754 20.0221 5.79027 18.8058L5.7478 15.8148M11.289 15.8148H5.7478M11.289 15.8148C11.289 14.9178 11.9212 14.1359 12.7429 13.6153C14.71 12.369 16 10.2802 16 7.91358C16 4.09532 12.6421 1 8.5 1C4.35786 1 1 4.09532 1 7.91358C1 10.2926 2.30356 12.391 4.28817 13.6349C5.09722 14.142 5.72508 14.9009 5.74695 15.7806L5.7478 15.8148M8.5 3.77778C10.9162 3.77778 12.875 5.58338 12.875 7.8107" stroke="white" stroke-linecap="round" stroke-linejoin="round"/>
</svg>
