<svg width="22" height="22" viewBox="0 0 22 22" fill="none" xmlns="http://www.w3.org/2000/svg">
<path d="M19.6298 5.07579C19.4117 4.72267 19.0538 4.46407 18.6343 4.35861C18.2139 4.25314 17.767 4.30861 17.3907 4.51252C16.7655 4.85075 16.0118 4.85037 15.387 4.5115L14.7395 4.16037C14.1534 3.84251 13.7883 3.22926 13.7883 2.5625C13.7883 1.7125 13.0566 1 12.1519 1H9.84797C8.94318 1 8.21153 1.7125 8.21153 2.5625C8.21153 3.2293 7.84658 3.84262 7.26054 4.16072L6.61383 4.51174C5.98898 4.8509 5.23503 4.85119 4.60992 4.51252C4.23369 4.30862 3.78587 4.25314 3.36553 4.35861C2.94601 4.46408 2.58811 4.72267 2.37001 5.07579L1.21969 6.94767C1.00244 7.30079 0.943334 7.72111 1.05571 8.11484C1.16808 8.50938 1.44276 8.8453 1.81899 9.04922C2.43455 9.38336 2.81796 10.0275 2.81816 10.7279L2.81833 11.2721C2.81853 11.9724 2.43532 12.6167 1.81982 12.9508C1.44359 13.1555 1.16807 13.4906 1.05571 13.8844C0.94334 14.2789 1.00244 14.6992 1.21969 15.0523L2.37167 16.9242C2.58892 17.2773 2.94684 17.5359 3.36636 17.6414C3.78672 17.7469 4.23369 17.6914 4.61075 17.4875C5.23594 17.1492 5.98967 17.1496 6.61451 17.4885L7.25967 17.8384C7.84621 18.1566 8.21151 18.7703 8.21151 19.4375C8.21151 20.2875 8.94316 21 9.84795 21H12.1512C13.0568 21 13.7876 20.2875 13.7876 19.4375C13.7882 18.7702 14.1537 18.1566 14.7404 17.8386L15.3862 17.4884C16.0111 17.1496 16.7649 17.1492 17.3901 17.4875C17.7671 17.6914 18.2141 17.7469 18.6336 17.6414C19.054 17.5359 19.4119 17.2773 19.6292 16.9242L20.7803 15.0523C20.9976 14.6992 21.0567 14.2789 20.9443 13.8852C20.8319 13.4906 20.5572 13.1547 20.181 12.9508C19.5655 12.6167 19.1822 11.9725 19.1822 11.2721V10.7279C19.1822 10.0275 19.5655 9.38332 20.181 9.0492C20.5572 8.84452 20.8319 8.50937 20.9443 8.11561C21.0567 7.72107 20.9976 7.30077 20.7803 6.94765L19.6298 5.07579Z" stroke="white" stroke-width="2" stroke-linecap="round" stroke-linejoin="round"/>
<path d="M14.3333 11C14.3333 12.8409 12.8409 14.3333 11 14.3333C9.15905 14.3333 7.66667 12.8409 7.66667 11C7.66667 9.15905 9.15905 7.66667 11 7.66667C12.8409 7.66667 14.3333 9.15905 14.3333 11Z" stroke="white" stroke-width="2" stroke-linecap="round" stroke-linejoin="round"/>
</svg>
