<svg width="16" height="19" viewBox="0 0 16 19" fill="none" xmlns="http://www.w3.org/2000/svg">
<path d="M9.85749 2.81605C7.80558 2.26624 5.67593 3.56061 5.10078 5.7071C4.88405 6.51593 4.85653 7.20918 4.03125 8.54473C3.72739 9.03644 2.78393 9.94674 1.81149 10.8211C0.756418 11.7698 1.11518 13.5605 2.45959 13.9207C5.21036 14.6578 7.96114 15.3949 10.7119 16.1319C12.0563 16.4922 13.2624 15.1208 12.823 13.7716C12.418 12.5282 12.0561 11.2681 12.0388 10.6904C11.9919 9.12109 12.3147 8.50696 12.5314 7.69813C13.1066 5.55164 11.9094 3.36586 9.85749 2.81605ZM9.85749 2.81605L10.1959 1.55291M3.02115 5.21211C3.49308 3.45087 4.74491 2.1011 6.3219 1.41742M13.6187 3.37259C14.6426 4.75318 15.0518 6.54803 14.5799 8.30927M9.86237 15.9043L9.74955 16.3254C9.30093 17.9996 7.9724 18.5568 6.61518 18.1931C5.25796 17.8295 4.38601 16.6827 4.83463 15.0084L4.94744 14.5874" stroke="white" stroke-linecap="round" stroke-linejoin="round"/>
</svg>
